<svg width="606.7100219726562px" height="120.8px" xmlns="http://www.w3.org/2000/svg" viewBox="-53.355010986328125 14.600000000000001 606.7100219726562 120.8" style="background: rgba(0, 0, 0, 0);" preserveAspectRatio="xMidYMid"><defs>
  <filter id="editing-scratch" x="-100%" y="-100%" width="300%" height="300%">
    <!-- COLOR -->
    <feFlood flood-color="#ddd" flood-opacity="0.75" result="COLOR-blu"></feFlood>
    <feFlood flood-color="#666" flood-opacity="0.4" result="COLOR-red"></feFlood>
    <!-- COLOR END -->

    <!-- Texture -->
    <feTurbulence baseFrequency=".05" type="fractalNoise" numOctaves="3" seed="0" result="Texture_10"></feTurbulence>
    <feColorMatrix type="matrix" values="0 0 0 0 0,
    0 0 0 0 0,
    0 0 0 0 0,
    0 0 0 -2.1 1.1" in="Texture_10" result="Texture_20"></feColorMatrix>

    <feColorMatrix result="Texture_30" type="matrix" values="0 0 0 0 0,
    0 0 0 0 0,
    0 0 0 0 0,
    0 0 0 -1.7 1.8" in="Texture_10"></feColorMatrix>
    <!-- Texture -->

    <!-- FILL -->
    <feOffset dx="-3" dy="4" in="SourceAlpha" result="FILL_10"></feOffset>
    <feDisplacementMap scale="17" in="FILL_10" in2="Texture_10" result="FILL_20"></feDisplacementMap>
    <feComposite operator="in" in="Texture_30" in2="FILL_20" result="FILL_40"></feComposite>
    <feComposite operator="in" in="COLOR-blu" in2="FILL_40" result="FILL_50"></feComposite>
    <!-- FILL END-->

    <!-- OUTLINE -->
    <feMorphology operator="dilate" radius="3" in="SourceGraphic" result="OUTLINE_10"></feMorphology>
    <feComposite operator="out" in="OUTLINE_10" in2="SourceGraphic" result="OUTLINE_20"></feComposite>
    <feDisplacementMap scale="7" in="OUTLINE_20" in2="Texture_10" result="OUTLINE_30"></feDisplacementMap>
    <feComposite operator="arithmetic" k2="-1" k3="1" in="Texture_20" in2="OUTLINE_30" result="OUTLINE_40"></feComposite>
    <!-- OUTLINE END-->

    <!-- BEVEL OUTLINE -->
    <feConvolveMatrix order="8,8" divisor="1" kernelMatrix="1 0 0 0 0 0 0 0 0 1 0 0 0 0 0 0 0 0 1 0 0 0 0 0 0 0 0 1 0 0 0 0 0 0 0 0 1 0 0 0 0 0 0 0 0 1 0 0 0 0 0 0 0 0 1 0 0 0 0 0 0 0 0 1 " in="SourceGraphic" result="BEVEL_10"></feConvolveMatrix>
    <feMorphology operator="dilate" radius="2" in="BEVEL_10" result="BEVEL_20"></feMorphology>
    <feComposite operator="out" in="BEVEL_20" in2="BEVEL_10" result="BEVEL_30"></feComposite>
    <feDisplacementMap scale="7" in="BEVEL_30" in2="Texture_10" result="BEVEL_40"></feDisplacementMap>
    <feComposite operator="arithmetic" k2="-1" k3="1" in="Texture_20" in2="BEVEL_40" result="BEVEL_50"></feComposite>
    <feOffset dx="-7" dy="-7" in="BEVEL_50" result="BEVEL_60"></feOffset>
    <feComposite operator="out" in="BEVEL_60" in2="OUTLINE_10" result="BEVEL_70"></feComposite>
    <!-- BEVEL OUTLINE END -->

    <!-- BEVEL FILL -->
    <feOffset dx="-9" dy="-9" in="BEVEL_10" result="BEVEL-FILL_10"></feOffset>
    <feComposite operator="out" in="BEVEL-FILL_10" in2="OUTLINE_10" result="BEVEL-FILL_20"></feComposite>
    <feDisplacementMap scale="17" in="BEVEL-FILL_20" in2="Texture_10" result="BEVEL-FILL_30"></feDisplacementMap>
    <feComposite operator="in" in="COLOR-red" in2="BEVEL-FILL_30" result="BEVEL-FILL_50"></feComposite> <!-- -->
    <!-- BEVEL FILL END-->

    <feMerge result="merge2">
     <feMergeNode in="BEVEL-FILL_50"></feMergeNode>
     <feMergeNode in="BEVEL_70"></feMergeNode>
     <feMergeNode in="FILL_50"></feMergeNode>
      <feMergeNode in="OUTLINE_40"></feMergeNode>
    </feMerge>
  </filter>
</defs>
<g filter="url(#editing-scratch)"><g transform="translate(38.08736991882324, 99)"><path d="M29.18 1.28L29.18 1.28L29.18 1.28Q20.99 1.28 20.22-10.37L20.22-10.37L9.22-10.37L9.22-10.37Q7.94-7.42 7.04-4.86L7.04-4.86L5.38 0L-3.58 0L16.58-42.24L30.34-42.24L33.02-11.14L33.02-11.14Q33.66-4.42 36.22-2.43L36.22-2.43L36.22-2.43Q34.37 1.28 29.18 1.28ZM14.72-23.17L11.20-15.04L20.03-15.04L19.26-31.49L19.26-33.22L14.72-23.17ZM67.01 1.28L67.01 1.28L67.01 1.28Q59.26 1.28 59.26-4.74L59.26-4.74L59.26-4.74Q59.33-6.40 59.84-9.22L59.84-9.22L60.99-15.10L60.99-15.10Q62.72-23.42 62.72-25.28L62.72-25.28L62.72-25.28Q62.72-28.99 60.54-28.99L60.54-28.99L60.54-28.99Q56.90-28.99 54.98-19.46L54.98-19.46L51.20 0L38.34 1.28L44.99-32.70L55.49-33.92L54.46-27.65L54.46-27.65Q57.47-33.92 66.69-33.92L66.69-33.92L66.69-33.92Q71.17-33.92 73.06-32.03L73.06-32.03L73.06-32.03Q74.94-30.14 74.94-25.92L74.94-25.92L74.94-25.92Q74.94-21.95 72.90-12.67L72.90-12.67L72.90-12.67Q71.94-8.51 71.94-6.94L71.94-6.94L71.94-6.94Q71.94-5.38 72.80-4.48L72.80-4.48L72.80-4.48Q73.66-3.58 74.94-3.46L74.94-3.46L74.94-3.46Q74.30-1.28 72.10 0L72.10 0L72.10 0Q69.89 1.28 67.01 1.28ZM100.22-33.92L100.22-33.92L100.22-33.92Q102.53-33.92 104.32-33.41L104.32-33.41L104.32-33.41Q104.38-33.66 104.51-34.37L104.51-34.37L104.83-36.35L104.83-36.35Q105.09-37.63 105.47-39.74L105.47-39.74L106.50-44.80L119.23-46.08L112.13-8.96L112.13-8.96Q112.06-8.58 112.06-7.94L112.06-7.94L112.06-6.91L112.06-6.91Q112.06-5.50 112.77-4.45L112.77-4.45L112.77-4.45Q113.47-3.39 114.62-3.39L114.62-3.39L114.62-3.39Q113.34-0.38 109.44 0.90L109.44 0.90L109.44 0.90Q108.10 1.28 106.21 1.28L106.21 1.28L106.21 1.28Q104.32 1.28 102.59 0.29L102.59 0.29L102.59 0.29Q100.86-0.70 100.35-2.37L100.35-2.37L100.35-2.37Q99.33-0.70 97.28 0.29L97.28 0.29L97.28 0.29Q95.23 1.28 92.26 1.28L92.26 1.28L92.26 1.28Q89.28 1.28 86.82 0.51L86.82 0.51L86.82 0.51Q84.35-0.26 82.82-1.92L82.82-1.92L82.82-1.92Q80-5.18 80-12.61L80-12.61L80-12.61Q80-22.21 85.63-28.03L85.63-28.03L85.63-28.03Q91.26-33.92 100.22-33.92ZM99.78-30.08L99.78-30.08L99.78-30.08Q97.41-30.08 96.13-27.52L96.13-27.52L96.13-27.52Q94.85-24.96 93.54-18.62L93.54-18.62L93.54-18.62Q92.22-12.29 92.22-6.59L92.22-6.59L92.22-6.59Q92.22-2.69 94.53-2.69L94.53-2.69L94.53-2.69Q96.58-2.69 98.02-4.74L98.02-4.74L98.02-4.74Q99.46-6.78 100.03-10.18L100.03-10.18L103.49-28.93L103.49-28.93Q102.14-30.08 99.78-30.08ZM140.10-17.98L140.10-17.98L140.10-17.98Q142.40-22.08 142.40-26.24L142.40-26.24L142.40-26.24Q142.40-28.99 140.42-28.99L140.42-28.99L140.42-28.99Q138.88-28.99 137.28-26.37L137.28-26.37L137.28-26.37Q135.62-23.74 135.10-20.35L135.10-20.35L131.78 0L118.53 1.28L125.06-32.64L135.62-33.92L134.46-27.46L134.46-27.46Q137.60-33.92 144.64-33.92L144.64-33.92L144.64-33.92Q148.35-33.92 150.37-32L150.37-32L150.37-32Q152.38-30.08 152.38-26.14L152.38-26.14L152.38-26.14Q152.38-22.21 149.79-19.71L149.79-19.71L149.79-19.71Q147.20-17.22 142.78-17.22L142.78-17.22L142.78-17.22Q140.86-17.22 140.10-17.98ZM168.77-3.52L168.77-3.52L168.77-3.52Q166.78 1.28 160.45 1.28L160.45 1.28L160.45 1.28Q157.18 1.28 155.14-0.96L155.14-0.96L155.14-0.96Q153.41-2.94 153.41-4.93L153.41-4.93L153.41-4.93Q153.41-10.11 155.78-20.22L155.78-20.22L158.14-32.64L171.14-33.92L167.23-13.70L167.23-13.70Q166.14-8.96 166.14-7.30L166.14-7.30L166.14-7.30Q166.14-3.65 168.77-3.52ZM159.30-41.54L159.30-41.54L159.30-41.54Q159.30-44.03 161.38-45.38L161.38-45.38L161.38-45.38Q163.46-46.72 166.46-46.72L166.46-46.72L166.46-46.72Q169.47-46.72 171.30-45.38L171.30-45.38L171.30-45.38Q173.12-44.03 173.12-41.54L173.12-41.54L173.12-41.54Q173.12-39.04 171.10-37.76L171.10-37.76L171.10-37.76Q169.09-36.48 166.08-36.48L166.08-36.48L166.08-36.48Q163.07-36.48 161.18-37.76L161.18-37.76L161.18-37.76Q159.30-39.04 159.30-41.54ZM189.57-3.52L189.57-3.52L189.57-3.52Q187.58 1.28 181.25 1.28L181.25 1.28L181.25 1.28Q177.98 1.28 175.94-0.96L175.94-0.96L175.94-0.96Q174.21-2.94 174.21-4.93L174.21-4.93L174.21-4.93Q174.21-10.11 176.58-20.22L176.58-20.22L178.94-32.64L191.94-33.92L188.03-13.70L188.03-13.70Q186.94-8.96 186.94-7.30L186.94-7.30L186.94-7.30Q186.94-3.65 189.57-3.52ZM180.10-41.54L180.10-41.54L180.10-41.54Q180.10-44.03 182.18-45.38L182.18-45.38L182.18-45.38Q184.26-46.72 187.26-46.72L187.26-46.72L187.26-46.72Q190.27-46.72 192.10-45.38L192.10-45.38L192.10-45.38Q193.92-44.03 193.92-41.54L193.92-41.54L193.92-41.54Q193.92-39.04 191.90-37.76L191.90-37.76L191.90-37.76Q189.89-36.48 186.88-36.48L186.88-36.48L186.88-36.48Q183.87-36.48 181.98-37.76L181.98-37.76L181.98-37.76Q180.10-39.04 180.10-41.54ZM209.15-15.62L209.15-15.62L209.15-15.62Q209.15-27.71 215.42-35.33L215.42-35.33L215.42-35.33Q222.08-43.58 233.66-43.58L233.66-43.58L233.66-43.58Q242.05-43.58 246.27-39.52L246.27-39.52L246.27-39.52Q250.50-35.46 250.50-26.88L250.50-26.88L250.50-26.88Q250.50-13.82 243.84-6.21L243.84-6.21L243.84-6.21Q237.25 1.28 226.18 1.28L226.18 1.28L226.18 1.28Q217.54 1.28 213.34-3.04L213.34-3.04L213.34-3.04Q209.15-7.36 209.15-15.62ZM225.98-28.86L225.98-28.86L225.98-28.86Q223.10-17.34 223.10-8.26L223.10-8.26L223.10-8.26Q223.10-6.08 223.84-4.67L223.84-4.67L223.84-4.67Q224.58-3.26 226.53-3.26L226.53-3.26L226.53-3.26Q228.48-3.26 229.70-4.19L229.70-4.19L229.70-4.19Q230.91-5.12 231.87-7.23L231.87-7.23L231.87-7.23Q233.41-10.69 234.85-18.02L234.85-18.02L234.85-18.02Q236.29-25.34 236.42-28.38L236.42-28.38L236.42-28.38Q236.54-31.42 236.54-33.73L236.54-33.73L236.54-33.73Q236.54-36.03 235.84-37.50L235.84-37.50L235.84-37.50Q235.14-38.98 233.25-38.98L233.25-38.98L233.25-38.98Q231.36-38.98 230.08-37.82L230.08-37.82L230.08-37.82Q227.71-35.65 225.98-28.86ZM299.71 1.28L299.71 1.28L299.71 1.28Q291.97 1.28 291.97-4.74L291.97-4.74L291.97-4.74Q291.97-7.36 293.09-12.45L293.09-12.45L293.09-12.45Q294.21-17.54 294.59-19.58L294.59-19.58L294.59-19.58Q295.49-24.26 295.49-25.73L295.49-25.73L295.49-25.73Q295.49-28.99 293.06-28.99L293.06-28.99L293.06-28.99Q291.46-28.99 289.92-26.78L289.92-26.78L289.92-26.78Q288.38-24.58 287.68-20.16L287.68-20.16L283.71 0L271.23 1.28L274.69-16.13L274.69-16.13Q275.26-19.01 275.78-22.27L275.78-22.27L275.78-22.27Q276.29-25.54 276.29-26.05L276.29-26.05L276.29-26.05Q276.29-28.99 274.11-28.99L274.11-28.99L274.11-28.99Q272.64-28.99 271.04-26.82L271.04-26.82L271.04-26.82Q269.44-24.64 268.54-20.16L268.54-20.16L264.64 0L252.03 1.28L258.75-32.64L269.18-33.92L268.10-27.46L268.10-27.46Q269.76-30.91 272.83-32.42L272.83-32.42L272.83-32.42Q275.90-33.92 280.70-33.92L280.70-33.92L280.70-33.92Q283.46-33.92 285.25-32.58L285.25-32.58L285.25-32.58Q287.04-31.23 287.62-29.06L287.62-29.06L287.62-29.06Q288.70-31.30 291.49-32.61L291.49-32.61L291.49-32.61Q294.27-33.92 297.70-33.92L297.70-33.92L297.70-33.92Q301.12-33.92 302.82-33.18L302.82-33.18L302.82-33.18Q304.51-32.45 305.54-31.23L305.54-31.23L305.54-31.23Q307.26-28.99 307.26-24.90L307.26-24.90L307.26-24.90Q307.26-20.86 305.54-12.48L305.54-12.48L305.54-12.48Q304.64-8.38 304.64-6.88L304.64-6.88L304.64-6.88Q304.64-5.38 305.50-4.48L305.50-4.48L305.50-4.48Q306.37-3.58 307.65-3.46L307.65-3.46L307.65-3.46Q307.01-1.28 304.80 0L304.80 0L304.80 0Q302.59 1.28 299.71 1.28ZM338.50-10.82L338.50-10.82L338.50-10.82Q340.10-9.73 340.10-7.33L340.10-7.33L340.10-7.33Q340.10-4.93 338.88-3.39L338.88-3.39L338.88-3.39Q337.66-1.86 335.68-0.83L335.68-0.83L335.68-0.83Q331.58 1.28 327.17 1.28L327.17 1.28L327.17 1.28Q322.75 1.28 320.16 0.32L320.16 0.32L320.16 0.32Q317.57-0.64 315.84-2.43L315.84-2.43L315.84-2.43Q312.45-5.82 312.45-12.03L312.45-12.03L312.45-12.03Q312.45-21.70 317.70-27.58L317.70-27.58L317.70-27.58Q323.33-33.92 333.12-33.92L333.12-33.92L333.12-33.92Q339.20-33.92 342.21-31.36L342.21-31.36L342.21-31.36Q344.45-29.44 344.45-26.30L344.45-26.30L344.45-26.30Q344.45-15.04 324.99-15.04L324.99-15.04L324.99-15.04Q324.74-13.38 324.74-11.97L324.74-11.97L324.74-11.97Q324.74-9.02 326.05-7.90L326.05-7.90L326.05-7.90Q327.36-6.78 329.79-6.78L329.79-6.78L329.79-6.78Q332.22-6.78 334.82-7.90L334.82-7.90L334.82-7.90Q337.41-9.02 338.50-10.82ZM325.44-17.79L325.44-17.79L325.44-17.79Q329.98-17.79 332.61-20.61L332.61-20.61L332.61-20.61Q335.23-23.30 335.23-27.58L335.23-27.58L335.23-27.58Q335.23-29.06 334.69-29.86L334.69-29.86L334.69-29.86Q334.14-30.66 333.06-30.66L333.06-30.66L333.06-30.66Q331.97-30.66 331.04-30.24L331.04-30.24L331.04-30.24Q330.11-29.82 329.15-28.42L329.15-28.42L329.15-28.42Q326.78-25.22 325.44-17.79ZM361.92-3.52L361.92-3.52L361.92-3.52Q359.94 1.28 353.60 1.28L353.60 1.28L353.60 1.28Q350.40 1.28 348.35-0.96L348.35-0.96L348.35-0.96Q346.69-2.82 346.69-4.93L346.69-4.93L346.69-4.93Q346.69-9.73 348.93-20.22L348.93-20.22L353.60-44.80L366.59-46.08L360.38-13.70L360.38-13.70Q359.30-8.96 359.30-7.30L359.30-7.30L359.30-7.30Q359.30-3.65 361.92-3.52ZM382.72-3.52L382.72-3.52L382.72-3.52Q380.74 1.28 374.40 1.28L374.40 1.28L374.40 1.28Q371.14 1.28 369.09-0.96L369.09-0.96L369.09-0.96Q367.36-2.94 367.36-4.93L367.36-4.93L367.36-4.93Q367.36-10.11 369.73-20.22L369.73-20.22L372.10-32.64L385.09-33.92L381.18-13.70L381.18-13.70Q380.10-8.96 380.10-7.30L380.10-7.30L380.10-7.30Q380.10-3.65 382.72-3.52ZM373.25-41.54L373.25-41.54L373.25-41.54Q373.25-44.03 375.33-45.38L375.33-45.38L375.33-45.38Q377.41-46.72 380.42-46.72L380.42-46.72L380.42-46.72Q383.42-46.72 385.25-45.38L385.25-45.38L385.25-45.38Q387.07-44.03 387.07-41.54L387.07-41.54L387.07-41.54Q387.07-39.04 385.06-37.76L385.06-37.76L385.06-37.76Q383.04-36.48 380.03-36.48L380.03-36.48L380.03-36.48Q377.02-36.48 375.14-37.76L375.14-37.76L375.14-37.76Q373.25-39.04 373.25-41.54ZM415.23 1.28L415.23 1.28L415.23 1.28Q407.49 1.28 407.49-4.74L407.49-4.74L407.49-4.74Q407.55-6.40 408.06-9.22L408.06-9.22L409.22-15.10L409.22-15.10Q410.94-23.42 410.94-25.28L410.94-25.28L410.94-25.28Q410.94-28.99 408.77-28.99L408.77-28.99L408.77-28.99Q405.12-28.99 403.20-19.46L403.20-19.46L399.42 0L386.56 1.28L393.22-32.70L403.71-33.92L402.69-27.65L402.69-27.65Q405.70-33.92 414.91-33.92L414.91-33.92L414.91-33.92Q419.39-33.92 421.28-32.03L421.28-32.03L421.28-32.03Q423.17-30.14 423.17-25.92L423.17-25.92L423.17-25.92Q423.17-21.95 421.12-12.67L421.12-12.67L421.12-12.67Q420.16-8.51 420.16-6.94L420.16-6.94L420.16-6.94Q420.16-5.38 421.02-4.48L421.02-4.48L421.02-4.48Q421.89-3.58 423.17-3.46L423.17-3.46L423.17-3.46Q422.53-1.28 420.32 0L420.32 0L420.32 0Q418.11 1.28 415.23 1.28Z" fill="#000"></path></g></g><style>text {
  font-size: 64px;
  font-family: Arial Black;
  dominant-baseline: central;
  text-anchor: middle;
}</style></svg>