<?xml version="1.0" encoding="utf-8"?>
<!-- Svg Vector Icons : http://www.onlinewebfonts.com/icon -->
<!DOCTYPE svg PUBLIC "-//W3C//DTD SVG 1.1//EN" "http://www.w3.org/Graphics/SVG/1.1/DTD/svg11.dtd">
<svg version="1.1" xmlns="http://www.w3.org/2000/svg" xmlns:xlink="http://www.w3.org/1999/xlink" x="0px" y="0px" viewBox="0 0 1000 1000" enable-background="new 0 0 1000 1000" xml:space="preserve">
<metadata> Svg Vector Icons : http://www.onlinewebfonts.com/icon </metadata>
<g><path d="M500.1,10C229.9,10,10,229.8,10,500c0,270.2,219.8,490,490,490c270.2,0,490-219.9,490-490C990.1,229.8,770.2,10,500.1,10z M500.1,921.2c-232.3,0-421.3-189-421.3-421.2c0-232.2,189-421.2,421.3-421.2c232.2,0,421.1,189,421.1,421.2C921.2,732.2,732.3,921.2,500.1,921.2z"/><path d="M810.9,472.8c-3.9-8.6-8.7-16-15.1-22.2c-6.2-6.2-13.6-11.2-22-14.9c-8.7-3.8-17.8-5.7-27.4-5.7c-19,0-35.6,6.9-49.3,20.6c-13.8,13.8-20.7,30.2-20.7,49.4c0,19.2,6.9,35.6,20.7,49.5c13.6,13.8,30.2,20.6,49.3,20.6c19.2,0,35.7-6.8,49.5-20.6c13.8-13.8,20.6-30.3,20.6-49.5C816.4,490.5,814.7,481.4,810.9,472.8z"/><path d="M549.5,450.6c-6.2-6.2-13.6-11.2-22.2-14.9c-8.6-3.7-17.7-5.7-27.2-5.7c-19.2,0-35.6,6.9-49.5,20.6c-13.8,13.8-20.6,30.2-20.6,49.4c0,19.2,6.9,35.6,20.6,49.5c13.8,13.8,30.2,20.6,49.5,20.6c19.2,0,35.6-6.8,49.4-20.6c13.7-13.8,20.6-30.3,20.6-49.5c0-9.5-1.8-18.7-5.5-27.2C560.7,464.3,555.7,456.8,549.5,450.6z"/><path d="M303.1,450.6c-6.2-6.2-13.6-11.2-22.2-14.9c-8.6-3.8-17.6-5.7-27.2-5.7c-19.2,0-35.6,6.9-49.4,20.6c-13.8,13.8-20.7,30.2-20.7,49.4c0,19.2,6.9,35.6,20.6,49.5c13.8,13.8,30.2,20.6,49.4,20.6c19.2,0,35.6-6.8,49.4-20.6c13.7-13.8,20.6-30.3,20.6-49.5c0-9.5-2-18.7-5.7-27.2C314.3,464.3,309.3,456.8,303.1,450.6z"/></g>
</svg>